<svg width="393" height="408" viewBox="0 0 393 408" fill="none" xmlns="http://www.w3.org/2000/svg">
<mask id="mask0_4470_2902" style="mask-type:alpha" maskUnits="userSpaceOnUse" x="0" y="0" width="393" height="408">
<rect width="392.67" height="407.507" fill="url(#paint0_radial_4470_2902)"/>
</mask>
<g mask="url(#mask0_4470_2902)">
<g opacity="0.5" filter="url(#filter0_i_4470_2902)">
<rect x="51.2266" y="66" width="269" height="290" rx="46.8398" fill="#5E5F6E" fill-opacity="0.4"/>
<g filter="url(#filter1_i_4470_2902)">
<rect x="55.9102" y="70.6836" width="260.039" height="378.232" rx="42.1558" fill="#0A0A0B"/>
<path d="M80.4118 120.331H82.1109L85.5598 129.523H83.7973L83.0745 127.482H79.3467L78.6366 129.523H76.9883L80.4118 120.331ZM79.8159 126.138H82.5927L81.1979 122.195L79.8159 126.138ZM89.478 122.55C89.85 122.55 90.205 122.609 90.5431 122.727C90.8897 122.845 91.1982 123.015 91.4687 123.234C91.7392 123.446 91.9675 123.703 92.1534 124.008C92.3394 124.312 92.4662 124.654 92.5338 125.035H91.063C90.9954 124.671 90.8178 124.375 90.5304 124.147C90.243 123.919 89.8922 123.805 89.478 123.805C89.2413 123.805 89.0131 123.851 88.7933 123.944C88.582 124.029 88.3918 124.168 88.2227 124.363C88.0621 124.549 87.9311 124.785 87.8297 125.073C87.7367 125.36 87.6902 125.707 87.6902 126.113C87.6902 126.518 87.7367 126.869 87.8297 127.165C87.9311 127.452 88.0621 127.693 88.2227 127.888C88.3918 128.074 88.582 128.213 88.7933 128.306C89.0046 128.391 89.2202 128.433 89.44 128.433C89.626 128.433 89.8077 128.412 89.9852 128.37C90.1627 128.327 90.3276 128.255 90.4797 128.154C90.6319 128.053 90.7629 127.926 90.8728 127.774C90.9827 127.613 91.063 127.419 91.1137 127.19H92.5845C92.5085 127.588 92.369 127.943 92.1661 128.255C91.9632 128.568 91.7181 128.83 91.4307 129.042C91.1433 129.253 90.8263 129.414 90.4797 129.523C90.1331 129.633 89.7781 129.688 89.4146 129.688C88.9159 129.688 88.4636 129.6 88.0579 129.422C87.6606 129.236 87.3182 128.987 87.0308 128.674C86.7434 128.353 86.5194 127.977 86.3588 127.545C86.2067 127.106 86.1306 126.632 86.1306 126.125C86.1306 125.618 86.2067 125.149 86.3588 124.718C86.5194 124.278 86.7434 123.898 87.0308 123.577C87.3267 123.255 87.6817 123.006 88.0959 122.829C88.5101 122.643 88.9708 122.55 89.478 122.55ZM95.4589 129.523H93.95V122.702H95.4589V123.653C95.6533 123.298 95.9154 123.027 96.2451 122.841C96.5832 122.647 96.9805 122.55 97.437 122.55C97.9695 122.55 98.3922 122.655 98.7049 122.867C99.0261 123.078 99.2671 123.374 99.4277 123.754C99.7235 123.323 100.062 123.015 100.442 122.829C100.822 122.643 101.224 122.55 101.647 122.55C102.052 122.55 102.395 122.613 102.674 122.74C102.961 122.867 103.194 123.048 103.371 123.285C103.549 123.522 103.675 123.805 103.751 124.135C103.836 124.464 103.878 124.832 103.878 125.238V129.523H102.369V125.605C102.369 125.377 102.357 125.153 102.331 124.933C102.314 124.714 102.264 124.519 102.179 124.35C102.103 124.173 101.985 124.033 101.824 123.932C101.664 123.83 101.444 123.78 101.165 123.78C100.886 123.78 100.649 123.834 100.455 123.944C100.269 124.046 100.117 124.19 99.9982 124.375C99.8799 124.561 99.7954 124.785 99.7447 125.048C99.6939 125.31 99.6686 125.593 99.6686 125.897V129.523H98.1597V125.605C98.1597 125.377 98.147 125.153 98.1217 124.933C98.1047 124.714 98.054 124.519 97.9695 124.35C97.8934 124.173 97.7751 124.033 97.6145 123.932C97.4539 123.83 97.2341 123.78 96.9551 123.78C96.6762 123.78 96.4395 123.834 96.2451 123.944C96.0591 124.046 95.9069 124.19 95.7886 124.375C95.6702 124.561 95.5857 124.785 95.535 125.048C95.4843 125.31 95.4589 125.593 95.4589 125.897V129.523ZM106.724 126.544C106.75 126.865 106.817 127.144 106.927 127.381C107.046 127.609 107.189 127.803 107.358 127.964C107.536 128.124 107.726 128.243 107.929 128.319C108.14 128.395 108.356 128.433 108.576 128.433C108.973 128.433 109.315 128.357 109.603 128.205C109.899 128.044 110.114 127.803 110.249 127.482H111.733C111.657 127.753 111.534 128.023 111.365 128.294C111.196 128.556 110.981 128.792 110.718 129.004C110.465 129.206 110.165 129.371 109.818 129.498C109.472 129.625 109.079 129.688 108.639 129.688C108.09 129.688 107.599 129.591 107.168 129.397C106.746 129.202 106.386 128.94 106.09 128.61C105.795 128.281 105.571 127.896 105.418 127.457C105.266 127.017 105.19 126.552 105.19 126.062C105.19 125.546 105.27 125.077 105.431 124.654C105.6 124.223 105.833 123.851 106.128 123.539C106.433 123.226 106.788 122.985 107.194 122.816C107.608 122.638 108.056 122.55 108.538 122.55C109.062 122.55 109.531 122.651 109.945 122.854C110.368 123.057 110.718 123.336 110.997 123.691C111.285 124.046 111.5 124.468 111.644 124.959C111.788 125.441 111.843 125.969 111.809 126.544H106.724ZM108.538 123.729C108.36 123.729 108.17 123.758 107.967 123.818C107.773 123.877 107.587 123.974 107.409 124.109C107.24 124.236 107.092 124.409 106.965 124.629C106.838 124.849 106.758 125.119 106.724 125.441H110.275C110.266 125.179 110.211 124.942 110.11 124.731C110.008 124.511 109.877 124.329 109.717 124.185C109.565 124.042 109.383 123.932 109.172 123.856C108.969 123.771 108.757 123.729 108.538 123.729ZM118.046 128.167H122.675V129.523H116.436V120.331H118.046V128.167ZM123.938 120.901H125.447V122.702H126.817V123.792H125.447V127.507C125.447 127.854 125.502 128.086 125.612 128.205C125.722 128.315 125.937 128.37 126.259 128.37H126.804V129.523H125.688C125.325 129.523 125.029 129.498 124.801 129.447C124.572 129.388 124.395 129.291 124.268 129.156C124.141 129.02 124.052 128.839 124.002 128.61C123.959 128.374 123.938 128.082 123.938 127.736V123.792H122.924V122.702H123.938V120.901ZM132.752 120.331H134.261V129.523H132.752V128.623C132.549 128.961 132.274 129.223 131.928 129.409C131.581 129.595 131.179 129.688 130.723 129.688C130.317 129.688 129.933 129.608 129.569 129.447C129.214 129.278 128.901 129.037 128.631 128.725C128.36 128.412 128.145 128.036 127.984 127.596C127.832 127.157 127.756 126.662 127.756 126.113C127.756 125.572 127.832 125.081 127.984 124.642C128.145 124.202 128.36 123.826 128.631 123.513C128.901 123.2 129.214 122.964 129.569 122.803C129.933 122.634 130.317 122.55 130.723 122.55C131.179 122.55 131.581 122.643 131.928 122.829C132.274 123.015 132.549 123.277 132.752 123.615V120.331ZM132.815 126.113C132.815 125.724 132.769 125.381 132.676 125.086C132.583 124.79 132.456 124.549 132.295 124.363C132.143 124.168 131.957 124.025 131.737 123.932C131.526 123.83 131.298 123.78 131.053 123.78C130.799 123.78 130.567 123.834 130.355 123.944C130.144 124.054 129.962 124.211 129.81 124.414C129.658 124.616 129.54 124.862 129.455 125.149C129.37 125.436 129.328 125.758 129.328 126.113C129.328 126.84 129.489 127.414 129.81 127.837C130.131 128.251 130.545 128.458 131.053 128.458C131.298 128.458 131.526 128.412 131.737 128.319C131.957 128.217 132.143 128.069 132.295 127.875C132.456 127.681 132.583 127.44 132.676 127.152C132.769 126.856 132.815 126.51 132.815 126.113ZM135.967 129.523V127.799H137.692V129.523H135.967Z" fill="#9394A1" fill-opacity="0.8"/>
<path d="M88.6982 152.527C88.6982 153.214 88.5724 153.858 88.3209 154.46C88.0769 155.062 87.7262 155.588 87.2688 156.038C86.8114 156.48 86.2587 156.831 85.6107 157.09C84.9703 157.342 84.2575 157.468 83.4722 157.468C82.6489 157.468 81.9208 157.338 81.288 157.079C80.6553 156.812 80.1254 156.408 79.6985 155.867C79.2716 155.318 78.9476 154.628 78.7265 153.797C78.5054 152.966 78.3948 151.982 78.3948 150.846C78.3948 150.084 78.4444 149.345 78.5435 148.628C78.6426 147.911 78.8065 147.237 79.0352 146.604C79.2639 145.971 79.5689 145.392 79.9501 144.866C80.3313 144.34 80.8039 143.89 81.3681 143.516C81.9399 143.135 82.6107 142.842 83.3807 142.636C84.1507 142.422 85.0427 142.316 86.0566 142.316H87.5318V144.054H85.9308C85.0389 144.054 84.2651 144.16 83.6094 144.374C82.9538 144.587 82.4049 144.889 81.9627 145.277C81.5206 145.666 81.1813 146.135 80.945 146.684C80.7086 147.233 80.56 147.846 80.499 148.525L80.4532 148.994C80.9335 148.712 81.4862 148.487 82.1114 148.319C82.7442 148.144 83.4265 148.056 84.1583 148.056C84.9131 148.056 85.5725 148.167 86.1367 148.388C86.7085 148.609 87.1811 148.918 87.5547 149.314C87.9359 149.703 88.2218 150.172 88.4124 150.721C88.6029 151.27 88.6982 151.872 88.6982 152.527ZM86.617 152.653C86.617 152.196 86.5598 151.784 86.4454 151.418C86.3387 151.045 86.1672 150.732 85.9308 150.48C85.6945 150.221 85.3934 150.023 85.0274 149.886C84.6691 149.741 84.2384 149.669 83.7352 149.669C83.4455 149.669 83.152 149.695 82.8547 149.749C82.5574 149.802 82.2639 149.878 81.9742 149.977C81.6921 150.069 81.4214 150.176 81.1622 150.297C80.903 150.419 80.6667 150.549 80.4532 150.686C80.4532 151.67 80.5219 152.493 80.6591 153.156C80.7963 153.812 80.9983 154.338 81.2652 154.734C81.5396 155.131 81.8751 155.413 82.2715 155.581C82.6679 155.748 83.1253 155.832 83.6437 155.832C84.0783 155.832 84.4747 155.764 84.833 155.626C85.199 155.482 85.5115 155.272 85.7707 154.997C86.0376 154.723 86.2434 154.391 86.3883 154.003C86.5407 153.606 86.617 153.156 86.617 152.653ZM102.672 149.794C102.672 150.938 102.557 151.982 102.328 152.928C102.1 153.865 101.753 154.673 101.288 155.352C100.823 156.023 100.243 156.545 99.5496 156.919C98.8635 157.285 98.0554 157.468 97.1253 157.468C96.3248 157.468 95.5967 157.319 94.9411 157.022C94.2855 156.717 93.7251 156.252 93.2601 155.626C92.795 155.001 92.4367 154.205 92.1852 153.236C91.9336 152.268 91.8078 151.121 91.8078 149.794C91.8078 148.651 91.9221 147.606 92.1508 146.661C92.3872 145.716 92.7341 144.908 93.1915 144.237C93.6565 143.558 94.2359 143.036 94.9297 142.67C95.6234 142.296 96.4315 142.11 97.354 142.11C98.1545 142.11 98.8825 142.262 99.5382 142.567C100.194 142.864 100.754 143.329 101.219 143.962C101.684 144.587 102.043 145.384 102.294 146.352C102.546 147.32 102.672 148.468 102.672 149.794ZM100.659 149.863C100.659 149.604 100.647 149.348 100.625 149.097C100.609 148.838 100.59 148.586 100.567 148.342L94.2435 153.042C94.3579 153.438 94.5028 153.804 94.6781 154.14C94.8534 154.475 95.0631 154.765 95.307 155.009C95.5586 155.245 95.8407 155.432 96.1533 155.569C96.4735 155.699 96.8356 155.764 97.2396 155.764C97.7581 155.764 98.2269 155.638 98.6462 155.386C99.0731 155.135 99.4353 154.761 99.7326 154.266C100.03 153.77 100.259 153.156 100.419 152.424C100.579 151.685 100.659 150.831 100.659 149.863ZM93.8204 149.726C93.8204 149.962 93.8204 150.198 93.8204 150.435C93.8281 150.671 93.8433 150.9 93.8662 151.121L100.19 146.444C100.076 146.055 99.9308 145.7 99.7555 145.38C99.5801 145.06 99.3705 144.786 99.1265 144.557C98.8825 144.321 98.6043 144.138 98.2917 144.008C97.9791 143.878 97.6285 143.814 97.2396 143.814C96.7212 143.814 96.2486 143.939 95.8216 144.191C95.4023 144.443 95.044 144.82 94.7467 145.323C94.4494 145.819 94.2207 146.436 94.0606 147.176C93.9005 147.907 93.8204 148.758 93.8204 149.726ZM116.485 149.794C116.485 150.938 116.37 151.982 116.142 152.928C115.913 153.865 115.566 154.673 115.101 155.352C114.636 156.023 114.057 156.545 113.363 156.919C112.677 157.285 111.869 157.468 110.938 157.468C110.138 157.468 109.41 157.319 108.754 157.022C108.099 156.717 107.538 156.252 107.073 155.626C106.608 155.001 106.25 154.205 105.998 153.236C105.747 152.268 105.621 151.121 105.621 149.794C105.621 148.651 105.735 147.606 105.964 146.661C106.2 145.716 106.547 144.908 107.005 144.237C107.47 143.558 108.049 143.036 108.743 142.67C109.437 142.296 110.245 142.11 111.167 142.11C111.968 142.11 112.696 142.262 113.351 142.567C114.007 142.864 114.567 143.329 115.032 143.962C115.497 144.587 115.856 145.384 116.107 146.352C116.359 147.32 116.485 148.468 116.485 149.794ZM114.472 149.863C114.472 149.604 114.461 149.348 114.438 149.097C114.422 148.838 114.403 148.586 114.381 148.342L108.057 153.042C108.171 153.438 108.316 153.804 108.491 154.14C108.667 154.475 108.876 154.765 109.12 155.009C109.372 155.245 109.654 155.432 109.966 155.569C110.287 155.699 110.649 155.764 111.053 155.764C111.571 155.764 112.04 155.638 112.459 155.386C112.886 155.135 113.248 154.761 113.546 154.266C113.843 153.77 114.072 153.156 114.232 152.424C114.392 151.685 114.472 150.831 114.472 149.863ZM107.634 149.726C107.634 149.962 107.634 150.198 107.634 150.435C107.641 150.671 107.656 150.9 107.679 151.121L114.003 146.444C113.889 146.055 113.744 145.7 113.569 145.38C113.393 145.06 113.184 144.786 112.94 144.557C112.696 144.321 112.417 144.138 112.105 144.008C111.792 143.878 111.442 143.814 111.053 143.814C110.534 143.814 110.062 143.939 109.635 144.191C109.216 144.443 108.857 144.82 108.56 145.323C108.263 145.819 108.034 146.436 107.874 147.176C107.714 147.907 107.634 148.758 107.634 149.726ZM143.951 152.527C143.951 153.214 143.825 153.858 143.574 154.46C143.33 155.062 142.979 155.588 142.522 156.038C142.064 156.48 141.511 156.831 140.863 157.09C140.223 157.342 139.51 157.468 138.725 157.468C137.902 157.468 137.174 157.338 136.541 157.079C135.908 156.812 135.378 156.408 134.951 155.867C134.524 155.318 134.2 154.628 133.979 153.797C133.758 152.966 133.648 151.982 133.648 150.846C133.648 150.084 133.697 149.345 133.796 148.628C133.895 147.911 134.059 147.237 134.288 146.604C134.517 145.971 134.822 145.392 135.203 144.866C135.584 144.34 136.057 143.89 136.621 143.516C137.193 143.135 137.863 142.842 138.633 142.636C139.403 142.422 140.295 142.316 141.309 142.316H142.785V144.054H141.184C140.292 144.054 139.518 144.16 138.862 144.374C138.207 144.587 137.658 144.889 137.215 145.277C136.773 145.666 136.434 146.135 136.198 146.684C135.961 147.233 135.813 147.846 135.752 148.525L135.706 148.994C136.186 148.712 136.739 148.487 137.364 148.319C137.997 148.144 138.679 148.056 139.411 148.056C140.166 148.056 140.825 148.167 141.389 148.388C141.961 148.609 142.434 148.918 142.807 149.314C143.189 149.703 143.474 150.172 143.665 150.721C143.856 151.27 143.951 151.872 143.951 152.527ZM141.87 152.653C141.87 152.196 141.813 151.784 141.698 151.418C141.591 151.045 141.42 150.732 141.184 150.48C140.947 150.221 140.646 150.023 140.28 149.886C139.922 149.741 139.491 149.669 138.988 149.669C138.698 149.669 138.405 149.695 138.107 149.749C137.81 149.802 137.517 149.878 137.227 149.977C136.945 150.069 136.674 150.176 136.415 150.297C136.156 150.419 135.919 150.549 135.706 150.686C135.706 151.67 135.775 152.493 135.912 153.156C136.049 153.812 136.251 154.338 136.518 154.734C136.792 155.131 137.128 155.413 137.524 155.581C137.921 155.748 138.378 155.832 138.896 155.832C139.331 155.832 139.727 155.764 140.086 155.626C140.452 155.482 140.764 155.272 141.023 154.997C141.29 154.723 141.496 154.391 141.641 154.003C141.793 153.606 141.87 153.156 141.87 152.653ZM157.501 144.168L151.234 157.262H148.959L155.466 144.168H147.392V142.316H157.501V144.168ZM171.394 157.262H161.548V155.478L165.414 151.635C166.046 151.01 166.561 150.469 166.957 150.012C167.354 149.554 167.663 149.139 167.884 148.765C168.105 148.384 168.253 148.026 168.33 147.69C168.406 147.355 168.444 146.993 168.444 146.604C168.444 146.238 168.394 145.891 168.295 145.563C168.196 145.228 168.044 144.934 167.838 144.683C167.632 144.431 167.365 144.233 167.037 144.088C166.71 143.943 166.317 143.871 165.86 143.871C165.227 143.871 164.651 144.012 164.133 144.294C163.614 144.576 163.138 144.942 162.703 145.392L161.606 144.077C162.17 143.482 162.818 143.005 163.55 142.647C164.289 142.289 165.147 142.11 166.123 142.11C166.786 142.11 167.388 142.209 167.929 142.407C168.478 142.605 168.951 142.891 169.347 143.265C169.744 143.638 170.049 144.096 170.262 144.637C170.483 145.178 170.594 145.788 170.594 146.467C170.594 147.038 170.518 147.568 170.365 148.056C170.213 148.544 169.98 149.032 169.668 149.52C169.363 150 168.974 150.5 168.501 151.018C168.036 151.536 167.483 152.104 166.843 152.722L164.133 155.363H171.394V157.262Z" fill="#D9D9DE"/>
<rect opacity="0.05" x="76.9883" y="180.758" width="217.883" height="1.171" fill="url(#paint1_linear_4470_2902)"/>
<path d="M79.9426 200.132H77.0517V198.788H84.4439V200.132H81.553V207.98H79.9426V200.132ZM87.0561 198.788V200.309H85.5472V198.788H87.0561ZM87.0561 201.159V207.98H85.5472V201.159H87.0561ZM89.1631 199.358H90.6719V201.159H92.0413V202.249H90.6719V205.964C90.6719 206.311 90.7269 206.543 90.8368 206.662C90.9467 206.772 91.1622 206.827 91.4834 206.827H92.0287V207.98H90.9129C90.5494 207.98 90.2535 207.955 90.0253 207.904C89.797 207.845 89.6195 207.748 89.4927 207.613C89.3659 207.478 89.2772 207.296 89.2265 207.068C89.1842 206.831 89.1631 206.539 89.1631 206.193V202.249H88.1487V201.159H89.1631V199.358ZM97.6722 204.773C97.1312 204.823 96.6705 204.882 96.2901 204.95C95.9097 205.018 95.5969 205.102 95.3518 205.204C95.1066 205.305 94.9249 205.428 94.8066 205.571C94.6967 205.707 94.6417 205.871 94.6417 206.066C94.6417 206.362 94.7558 206.594 94.9841 206.763C95.2123 206.932 95.5166 207.017 95.897 207.017C96.4549 207.017 96.8903 206.877 97.203 206.598C97.5158 206.311 97.6722 205.876 97.6722 205.292V204.773ZM95.5673 208.145C95.1954 208.145 94.853 208.095 94.5403 207.993C94.236 207.9 93.9697 207.765 93.7415 207.587C93.5217 207.41 93.3484 207.199 93.2216 206.953C93.1033 206.7 93.0441 206.417 93.0441 206.104C93.0441 205.681 93.1666 205.33 93.4118 205.051C93.6569 204.773 93.9866 204.544 94.4008 204.367C94.8235 204.189 95.3095 204.054 95.859 203.961C96.4169 203.868 97.0086 203.788 97.6341 203.72V203.593C97.6341 203.306 97.5961 203.065 97.52 202.871C97.4439 202.668 97.3383 202.511 97.203 202.401C97.0762 202.283 96.9241 202.199 96.7465 202.148C96.5775 202.097 96.4 202.072 96.214 202.072C95.8336 202.072 95.5124 202.173 95.2503 202.376C94.9968 202.579 94.8615 202.887 94.8446 203.302H93.3611C93.3864 202.955 93.4752 202.638 93.6273 202.351C93.7795 202.063 93.9824 201.818 94.236 201.615C94.4896 201.404 94.7854 201.243 95.1235 201.133C95.4701 201.015 95.8505 200.956 96.2647 200.956C96.6705 200.956 97.0509 201.007 97.4059 201.108C97.7609 201.21 98.0695 201.374 98.3315 201.603C98.5936 201.831 98.7964 202.135 98.9401 202.516C99.0838 202.887 99.1515 203.344 99.143 203.885C99.143 203.969 99.1388 204.079 99.1303 204.215C99.1303 204.35 99.1303 204.498 99.1303 204.658C99.1303 204.819 99.1261 204.988 99.1177 205.166C99.1177 205.335 99.1177 205.495 99.1177 205.647C99.1177 206.079 99.1346 206.505 99.1684 206.928C99.2022 207.342 99.2529 207.693 99.3205 207.98H97.9384C97.9131 207.837 97.8877 207.706 97.8624 207.587C97.8455 207.469 97.8285 207.292 97.8116 207.055C97.5919 207.427 97.2875 207.702 96.8987 207.879C96.5183 208.057 96.0745 208.145 95.5673 208.145ZM102.371 202.11C102.565 201.755 102.836 201.484 103.182 201.298C103.537 201.104 103.956 201.007 104.438 201.007C104.852 201.007 105.203 201.07 105.49 201.197C105.786 201.324 106.027 201.505 106.213 201.742C106.399 201.979 106.534 202.262 106.619 202.592C106.712 202.921 106.758 203.289 106.758 203.695V207.98H105.249V204.062C105.249 203.834 105.237 203.61 105.211 203.39C105.186 203.171 105.127 202.976 105.034 202.807C104.949 202.63 104.818 202.49 104.641 202.389C104.472 202.287 104.243 202.237 103.956 202.237C103.668 202.237 103.423 202.292 103.22 202.401C103.018 202.503 102.853 202.647 102.726 202.833C102.599 203.018 102.506 203.242 102.447 203.505C102.396 203.767 102.371 204.05 102.371 204.354V207.98H100.862V201.159H102.371V202.11ZM113.324 206.624H117.952V207.98H111.713V198.788H113.324V206.624ZM123.222 204.773C122.681 204.823 122.221 204.882 121.84 204.95C121.46 205.018 121.147 205.102 120.902 205.204C120.657 205.305 120.475 205.428 120.357 205.571C120.247 205.707 120.192 205.871 120.192 206.066C120.192 206.362 120.306 206.594 120.534 206.763C120.763 206.932 121.067 207.017 121.447 207.017C122.005 207.017 122.441 206.877 122.753 206.598C123.066 206.311 123.222 205.876 123.222 205.292V204.773ZM121.118 208.145C120.746 208.145 120.403 208.095 120.091 207.993C119.786 207.9 119.52 207.765 119.292 207.587C119.072 207.41 118.899 207.199 118.772 206.953C118.654 206.7 118.594 206.417 118.594 206.104C118.594 205.681 118.717 205.33 118.962 205.051C119.207 204.773 119.537 204.544 119.951 204.367C120.374 204.189 120.86 204.054 121.409 203.961C121.967 203.868 122.559 203.788 123.184 203.72V203.593C123.184 203.306 123.146 203.065 123.07 202.871C122.994 202.668 122.889 202.511 122.753 202.401C122.626 202.283 122.474 202.199 122.297 202.148C122.128 202.097 121.95 202.072 121.764 202.072C121.384 202.072 121.063 202.173 120.801 202.376C120.547 202.579 120.412 202.887 120.395 203.302H118.911C118.937 202.955 119.025 202.638 119.178 202.351C119.33 202.063 119.533 201.818 119.786 201.615C120.04 201.404 120.336 201.243 120.674 201.133C121.02 201.015 121.401 200.956 121.815 200.956C122.221 200.956 122.601 201.007 122.956 201.108C123.311 201.21 123.62 201.374 123.882 201.603C124.144 201.831 124.347 202.135 124.49 202.516C124.634 202.887 124.702 203.344 124.693 203.885C124.693 203.969 124.689 204.079 124.681 204.215C124.681 204.35 124.681 204.498 124.681 204.658C124.681 204.819 124.676 204.988 124.668 205.166C124.668 205.335 124.668 205.495 124.668 205.647C124.668 206.079 124.685 206.505 124.719 206.928C124.752 207.342 124.803 207.693 124.871 207.98H123.489C123.463 207.837 123.438 207.706 123.413 207.587C123.396 207.469 123.379 207.292 123.362 207.055C123.142 207.427 122.838 207.702 122.449 207.879C122.069 208.057 121.625 208.145 121.118 208.145ZM127.858 204.57C127.858 204.967 127.9 205.314 127.985 205.609C128.078 205.897 128.204 206.138 128.365 206.332C128.526 206.527 128.712 206.674 128.923 206.776C129.143 206.869 129.375 206.915 129.62 206.915C130.127 206.915 130.542 206.708 130.863 206.294C131.184 205.871 131.345 205.297 131.345 204.57C131.345 204.215 131.302 203.893 131.218 203.606C131.133 203.319 131.015 203.073 130.863 202.871C130.711 202.668 130.529 202.511 130.318 202.401C130.106 202.292 129.874 202.237 129.62 202.237C129.375 202.237 129.143 202.287 128.923 202.389C128.712 202.482 128.526 202.625 128.365 202.82C128.204 203.006 128.078 203.247 127.985 203.543C127.9 203.838 127.858 204.181 127.858 204.57ZM127.921 198.788V202.072C128.124 201.734 128.399 201.472 128.745 201.286C129.092 201.1 129.493 201.007 129.95 201.007C130.356 201.007 130.736 201.091 131.091 201.26C131.455 201.421 131.772 201.658 132.042 201.97C132.313 202.283 132.524 202.659 132.676 203.099C132.837 203.538 132.917 204.029 132.917 204.57C132.917 205.119 132.837 205.614 132.676 206.053C132.524 206.493 132.313 206.869 132.042 207.182C131.772 207.494 131.455 207.735 131.091 207.904C130.736 208.065 130.356 208.145 129.95 208.145C129.493 208.145 129.092 208.052 128.745 207.866C128.399 207.68 128.124 207.418 127.921 207.08V207.98H126.412V198.788H127.921ZM138.237 203.023C138.153 202.71 137.975 202.49 137.705 202.363C137.443 202.228 137.121 202.16 136.741 202.16C136.411 202.16 136.116 202.228 135.853 202.363C135.6 202.499 135.473 202.68 135.473 202.909C135.473 203.137 135.549 203.314 135.701 203.441C135.862 203.568 136.09 203.661 136.386 203.72L137.35 203.91C137.696 203.978 138.017 204.058 138.313 204.151C138.609 204.244 138.867 204.371 139.087 204.532C139.307 204.684 139.476 204.874 139.594 205.102C139.721 205.33 139.784 205.609 139.784 205.939C139.784 206.294 139.704 206.611 139.543 206.89C139.391 207.161 139.18 207.389 138.909 207.575C138.647 207.761 138.343 207.9 137.996 207.993C137.65 208.095 137.282 208.145 136.893 208.145C136.471 208.145 136.086 208.09 135.739 207.98C135.401 207.862 135.105 207.706 134.852 207.511C134.598 207.308 134.391 207.072 134.23 206.801C134.078 206.522 133.981 206.222 133.939 205.901H135.41C135.477 206.256 135.638 206.531 135.892 206.725C136.145 206.911 136.496 207.004 136.944 207.004C137.341 207.004 137.667 206.928 137.92 206.776C138.182 206.615 138.313 206.396 138.313 206.117C138.313 205.838 138.199 205.63 137.971 205.495C137.751 205.352 137.472 205.246 137.134 205.178L136.107 204.975C135.82 204.916 135.549 204.84 135.296 204.747C135.05 204.646 134.835 204.519 134.649 204.367C134.463 204.206 134.315 204.016 134.205 203.796C134.104 203.568 134.053 203.297 134.053 202.985C134.053 202.68 134.129 202.41 134.281 202.173C134.433 201.928 134.636 201.721 134.89 201.552C135.143 201.374 135.435 201.239 135.765 201.146C136.103 201.053 136.458 201.007 136.83 201.007C137.159 201.007 137.481 201.049 137.793 201.133C138.106 201.21 138.389 201.332 138.643 201.501C138.897 201.67 139.112 201.882 139.29 202.135C139.467 202.389 139.59 202.685 139.657 203.023H138.237Z" fill="#9394A1" fill-opacity="0.8"/>
<path d="M88.1379 230.935C88.1379 231.674 87.9778 232.349 87.6576 232.959C87.3374 233.569 86.8952 234.095 86.3311 234.537C85.7746 234.972 85.1151 235.311 84.3527 235.555C83.5904 235.799 82.767 235.921 81.8827 235.921C81.6616 235.921 81.4214 235.913 81.1622 235.898C80.9107 235.89 80.6591 235.875 80.4075 235.852C80.1559 235.837 79.9081 235.818 79.6642 235.795C79.4279 235.772 79.2144 235.745 79.0238 235.715V233.908C79.4355 234.007 79.9043 234.08 80.4304 234.125C80.964 234.171 81.5015 234.194 82.0428 234.194C82.6527 234.194 83.2016 234.121 83.6895 233.977C84.1774 233.832 84.5929 233.626 84.936 233.359C85.279 233.085 85.542 232.757 85.725 232.376C85.908 231.987 85.9995 231.552 85.9995 231.072C85.9995 230.142 85.664 229.467 84.9931 229.048C84.3299 228.621 83.3731 228.408 82.1228 228.408H79.2868V220.769H87.3374V222.507H81.1622V226.704H82.4659C83.1825 226.704 83.8801 226.768 84.5586 226.898C85.2371 227.028 85.8394 227.256 86.3654 227.584C86.8991 227.904 87.326 228.339 87.6462 228.888C87.974 229.429 88.1379 230.111 88.1379 230.935ZM102.248 227.401C102.248 228.857 102.073 230.111 101.722 231.164C101.372 232.208 100.853 233.069 100.167 233.748C99.481 234.419 98.631 234.914 97.617 235.235C96.6031 235.555 95.4328 235.715 94.1063 235.715H92.8598V233.977H94.2435C95.227 233.977 96.077 233.878 96.7937 233.679C97.5103 233.481 98.1049 233.191 98.5776 232.81C99.0579 232.421 99.4238 231.953 99.6754 231.404C99.927 230.847 100.083 230.214 100.144 229.505L100.19 229.037C99.7097 229.319 99.157 229.547 98.5319 229.723C97.9067 229.89 97.2282 229.974 96.4963 229.974C95.7416 229.974 95.0783 229.864 94.5066 229.643C93.9348 229.422 93.4583 229.113 93.0771 228.716C92.7036 228.32 92.4215 227.851 92.2309 227.31C92.0403 226.761 91.945 226.166 91.945 225.526C91.945 224.832 92.0708 224.184 92.3224 223.582C92.574 222.98 92.9247 222.457 93.3744 222.015C93.8319 221.565 94.377 221.211 95.0097 220.952C95.6425 220.692 96.3401 220.563 97.1024 220.563C97.8419 220.563 98.5242 220.685 99.1494 220.929C99.7821 221.173 100.327 221.569 100.785 222.118C101.242 222.659 101.6 223.364 101.86 224.234C102.119 225.103 102.248 226.159 102.248 227.401ZM97.0109 222.198C96.584 222.198 96.1876 222.271 95.8216 222.415C95.4633 222.553 95.1508 222.758 94.8839 223.033C94.6247 223.3 94.4189 223.631 94.2664 224.028C94.1139 224.424 94.0377 224.878 94.0377 225.389C94.0377 225.854 94.0911 226.269 94.1978 226.635C94.3122 227.001 94.4837 227.314 94.7124 227.573C94.9487 227.824 95.2499 228.019 95.6158 228.156C95.9817 228.293 96.4163 228.362 96.9195 228.362C97.2015 228.362 97.4912 228.335 97.7886 228.282C98.0935 228.228 98.387 228.156 98.6691 228.064C98.9588 227.973 99.2332 227.866 99.4924 227.744C99.7516 227.622 99.9842 227.493 100.19 227.355C100.19 226.372 100.118 225.552 99.9727 224.897C99.8279 224.234 99.6182 223.704 99.3438 223.307C99.0693 222.903 98.7339 222.617 98.3375 222.45C97.9486 222.282 97.5065 222.198 97.0109 222.198ZM116.142 231.964C116.142 232.597 116.012 233.161 115.753 233.656C115.494 234.144 115.131 234.556 114.666 234.891C114.201 235.227 113.652 235.482 113.02 235.658C112.387 235.833 111.701 235.921 110.961 235.921C110.146 235.921 109.425 235.829 108.8 235.646C108.183 235.463 107.664 235.208 107.245 234.88C106.825 234.552 106.509 234.163 106.296 233.714C106.082 233.264 105.975 232.768 105.975 232.227C105.975 231.312 106.231 230.523 106.742 229.86C107.252 229.197 108.041 228.594 109.109 228.053C108.133 227.558 107.42 227.009 106.97 226.406C106.521 225.796 106.296 225.099 106.296 224.314C106.296 223.833 106.395 223.368 106.593 222.919C106.791 222.469 107.089 222.068 107.485 221.718C107.889 221.367 108.392 221.089 108.994 220.883C109.597 220.67 110.306 220.563 111.121 220.563C111.891 220.563 112.566 220.647 113.146 220.814C113.733 220.974 114.224 221.207 114.621 221.512C115.017 221.817 115.314 222.187 115.513 222.621C115.711 223.056 115.81 223.54 115.81 224.073C115.81 224.943 115.566 225.682 115.078 226.292C114.598 226.902 113.912 227.436 113.02 227.893C113.462 228.114 113.874 228.358 114.255 228.625C114.636 228.892 114.968 229.189 115.25 229.517C115.532 229.845 115.749 230.211 115.901 230.615C116.062 231.019 116.142 231.468 116.142 231.964ZM113.774 224.234C113.774 223.555 113.534 223.052 113.054 222.724C112.581 222.389 111.914 222.221 111.053 222.221C110.199 222.221 109.532 222.385 109.052 222.713C108.579 223.04 108.343 223.532 108.343 224.188C108.343 224.485 108.4 224.76 108.514 225.011C108.628 225.263 108.804 225.499 109.04 225.72C109.284 225.941 109.585 226.159 109.944 226.372C110.302 226.585 110.729 226.803 111.224 227.024C112.086 226.62 112.726 226.201 113.146 225.766C113.565 225.324 113.774 224.813 113.774 224.234ZM113.98 232.113C113.98 231.831 113.935 231.556 113.843 231.289C113.752 231.022 113.588 230.759 113.351 230.5C113.115 230.241 112.799 229.982 112.402 229.723C112.006 229.463 111.503 229.197 110.893 228.922C110.374 229.174 109.936 229.425 109.578 229.677C109.227 229.921 108.941 230.172 108.72 230.432C108.507 230.683 108.354 230.946 108.263 231.221C108.171 231.495 108.125 231.785 108.125 232.09C108.125 232.433 108.198 232.738 108.343 233.005C108.495 233.264 108.701 233.485 108.96 233.668C109.219 233.851 109.528 233.988 109.886 234.08C110.245 234.171 110.634 234.217 111.053 234.217C111.457 234.217 111.838 234.175 112.196 234.091C112.555 234.007 112.863 233.881 113.123 233.714C113.389 233.538 113.599 233.321 113.752 233.062C113.904 232.795 113.98 232.479 113.98 232.113ZM143.768 235.715H133.922V233.931L137.787 230.089C138.42 229.463 138.935 228.922 139.331 228.465C139.727 228.007 140.036 227.592 140.257 227.218C140.478 226.837 140.627 226.479 140.703 226.143C140.78 225.808 140.818 225.446 140.818 225.057C140.818 224.691 140.768 224.344 140.669 224.016C140.57 223.681 140.417 223.387 140.212 223.136C140.006 222.884 139.739 222.686 139.411 222.541C139.083 222.396 138.691 222.324 138.233 222.324C137.6 222.324 137.025 222.465 136.506 222.747C135.988 223.029 135.512 223.395 135.077 223.845L133.979 222.53C134.543 221.935 135.191 221.459 135.923 221.1C136.663 220.742 137.52 220.563 138.496 220.563C139.159 220.563 139.762 220.662 140.303 220.86C140.852 221.058 141.325 221.344 141.721 221.718C142.117 222.091 142.422 222.549 142.636 223.09C142.857 223.631 142.967 224.241 142.967 224.92C142.967 225.492 142.891 226.021 142.739 226.509C142.586 226.997 142.354 227.485 142.041 227.973C141.736 228.453 141.347 228.953 140.875 229.471C140.41 229.989 139.857 230.557 139.217 231.175L136.506 233.817H143.768V235.715ZM157.455 235.715H148.067V233.862H151.909V222.953L148.33 224.897L147.598 223.204L152.355 220.7H154.116V233.862H157.455V235.715ZM171.017 230.935C171.017 231.674 170.857 232.349 170.537 232.959C170.216 233.569 169.774 234.095 169.21 234.537C168.654 234.972 167.994 235.311 167.232 235.555C166.469 235.799 165.646 235.921 164.762 235.921C164.541 235.921 164.301 235.913 164.041 235.898C163.79 235.89 163.538 235.875 163.287 235.852C163.035 235.837 162.787 235.818 162.543 235.795C162.307 235.772 162.093 235.745 161.903 235.715V233.908C162.315 234.007 162.783 234.08 163.309 234.125C163.843 234.171 164.381 234.194 164.922 234.194C165.532 234.194 166.081 234.121 166.569 233.977C167.056 233.832 167.472 233.626 167.815 233.359C168.158 233.085 168.421 232.757 168.604 232.376C168.787 231.987 168.879 231.552 168.879 231.072C168.879 230.142 168.543 229.467 167.872 229.048C167.209 228.621 166.252 228.408 165.002 228.408H162.166V220.769H170.216V222.507H164.041V226.704H165.345C166.062 226.704 166.759 226.768 167.438 226.898C168.116 227.028 168.718 227.256 169.244 227.584C169.778 227.904 170.205 228.339 170.525 228.888C170.853 229.429 171.017 230.111 171.017 230.935Z" fill="#D9D9DE"/>
<rect opacity="0.05" x="76.9883" y="259.215" width="217.883" height="1.171" fill="url(#paint2_linear_4470_2902)"/>
<path d="M84.4439 278.551L79.3087 285.043H84.5961V286.438H77.3433V285.131L82.4913 278.639H77.7491V277.245H84.4439V278.551ZM87.046 283.458C87.0714 283.779 87.139 284.058 87.2489 284.295C87.3672 284.523 87.5109 284.717 87.68 284.878C87.8575 285.039 88.0477 285.157 88.2506 285.233C88.4619 285.309 88.6775 285.347 88.8972 285.347C89.2945 285.347 89.6369 285.271 89.9243 285.119C90.2201 284.958 90.4357 284.717 90.571 284.396H92.0545C91.9784 284.667 91.8558 284.937 91.6868 285.208C91.5177 285.47 91.3021 285.706 91.0401 285.918C90.7865 286.121 90.4864 286.285 90.1398 286.412C89.7933 286.539 89.4002 286.602 88.9606 286.602C88.4112 286.602 87.9209 286.505 87.4898 286.311C87.0671 286.116 86.7079 285.854 86.412 285.525C86.1162 285.195 85.8921 284.81 85.74 284.371C85.5878 283.931 85.5118 283.466 85.5118 282.976C85.5118 282.46 85.5921 281.991 85.7527 281.568C85.9217 281.137 86.1542 280.765 86.4501 280.453C86.7544 280.14 87.1094 279.899 87.5151 279.73C87.9293 279.552 88.3774 279.464 88.8592 279.464C89.3833 279.464 89.8524 279.565 90.2666 279.768C90.6893 279.971 91.0401 280.25 91.3191 280.605C91.6065 280.96 91.822 281.383 91.9657 281.873C92.1094 282.355 92.1644 282.883 92.1306 283.458H87.046ZM88.8592 280.643C88.6817 280.643 88.4915 280.672 88.2886 280.732C88.0942 280.791 87.9082 280.888 87.7307 281.023C87.5616 281.15 87.4137 281.323 87.2869 281.543C87.1601 281.763 87.0798 282.033 87.046 282.355H90.5963C90.5879 282.093 90.5329 281.856 90.4315 281.645C90.33 281.425 90.199 281.243 90.0384 281.099C89.8862 280.956 89.7045 280.846 89.4932 280.77C89.2903 280.685 89.079 280.643 88.8592 280.643ZM95.0751 280.567C95.2695 280.212 95.54 279.941 95.8866 279.755C96.2416 279.561 96.66 279.464 97.1419 279.464C97.5561 279.464 97.9069 279.527 98.1943 279.654C98.4901 279.781 98.731 279.962 98.917 280.199C99.103 280.436 99.2382 280.719 99.3228 281.049C99.4157 281.378 99.4622 281.746 99.4622 282.152V286.438H97.9534V282.519C97.9534 282.291 97.9407 282.067 97.9153 281.847C97.89 281.628 97.8308 281.433 97.7378 281.264C97.6533 281.087 97.5222 280.947 97.3447 280.846C97.1757 280.744 96.9474 280.694 96.66 280.694C96.3726 280.694 96.1275 280.749 95.9246 280.858C95.7217 280.96 95.5569 281.104 95.4301 281.29C95.3033 281.476 95.2103 281.7 95.1511 281.962C95.1004 282.224 95.0751 282.507 95.0751 282.811V286.438H93.5662V279.616H95.0751V280.567ZM102.735 277.245V278.766H101.226V277.245H102.735ZM102.735 279.616V286.438H101.226V279.616H102.735ZM104.842 277.815H106.351V279.616H107.72V280.706H106.351V284.421C106.351 284.768 106.406 285 106.516 285.119C106.625 285.229 106.841 285.284 107.162 285.284H107.707V286.438H106.592C106.228 286.438 105.932 286.412 105.704 286.361C105.476 286.302 105.298 286.205 105.172 286.07C105.045 285.935 104.956 285.753 104.905 285.525C104.863 285.288 104.842 284.996 104.842 284.65V280.706H103.828V279.616H104.842V277.815ZM110.638 280.567C110.832 280.212 111.102 279.941 111.449 279.755C111.804 279.561 112.223 279.464 112.704 279.464C113.119 279.464 113.469 279.527 113.757 279.654C114.053 279.781 114.294 279.962 114.479 280.199C114.665 280.436 114.801 280.719 114.885 281.049C114.978 281.378 115.025 281.746 115.025 282.152V286.438H113.516V282.519C113.516 282.291 113.503 282.067 113.478 281.847C113.452 281.628 113.393 281.433 113.3 281.264C113.216 281.087 113.085 280.947 112.907 280.846C112.738 280.744 112.51 280.694 112.223 280.694C111.935 280.694 111.69 280.749 111.487 280.858C111.284 280.96 111.119 281.104 110.993 281.29C110.866 281.476 110.773 281.7 110.714 281.962C110.663 282.224 110.638 282.507 110.638 282.811V286.438H109.129V277.245H110.638V280.567ZM127.829 283.382C127.634 284.413 127.191 285.208 126.497 285.765C125.804 286.323 124.925 286.602 123.86 286.602C123.184 286.602 122.584 286.488 122.06 286.26C121.535 286.032 121.092 285.711 120.728 285.296C120.365 284.874 120.086 284.366 119.891 283.775C119.705 283.183 119.612 282.528 119.612 281.809C119.612 281.091 119.71 280.44 119.904 279.857C120.107 279.273 120.394 278.775 120.766 278.361C121.147 277.946 121.603 277.629 122.136 277.41C122.668 277.19 123.268 277.08 123.936 277.08C124.959 277.08 125.813 277.359 126.497 277.917C127.182 278.475 127.617 279.269 127.803 280.301H126.257C126.113 279.675 125.83 279.202 125.407 278.88C124.993 278.559 124.486 278.399 123.885 278.399C123.522 278.399 123.18 278.475 122.858 278.627C122.546 278.771 122.271 278.986 122.034 279.273C121.798 279.561 121.612 279.916 121.476 280.339C121.341 280.761 121.273 281.252 121.273 281.809C121.273 282.367 121.337 282.862 121.464 283.293C121.599 283.724 121.785 284.088 122.022 284.383C122.258 284.679 122.533 284.903 122.846 285.055C123.158 285.208 123.501 285.284 123.873 285.284C124.498 285.284 125.018 285.127 125.432 284.814C125.855 284.493 126.138 284.016 126.282 283.382H127.829ZM130.401 283.039C130.401 283.437 130.447 283.783 130.54 284.079C130.641 284.366 130.773 284.607 130.933 284.802C131.102 284.988 131.297 285.131 131.516 285.233C131.736 285.326 131.964 285.372 132.201 285.372C132.438 285.372 132.666 285.326 132.886 285.233C133.106 285.131 133.296 284.988 133.456 284.802C133.625 284.607 133.756 284.366 133.849 284.079C133.951 283.783 134.002 283.437 134.002 283.039C134.002 282.65 133.951 282.308 133.849 282.012C133.756 281.716 133.625 281.471 133.456 281.277C133.296 281.082 133.106 280.939 132.886 280.846C132.666 280.744 132.438 280.694 132.201 280.694C131.964 280.694 131.736 280.744 131.516 280.846C131.297 280.939 131.102 281.082 130.933 281.277C130.773 281.471 130.641 281.716 130.54 282.012C130.447 282.308 130.401 282.65 130.401 283.039ZM132.201 279.464C132.615 279.464 133.021 279.536 133.418 279.679C133.824 279.823 134.183 280.043 134.496 280.339C134.817 280.626 135.075 280.994 135.27 281.442C135.464 281.89 135.561 282.422 135.561 283.039C135.561 283.656 135.464 284.189 135.27 284.637C135.075 285.085 134.817 285.457 134.496 285.753C134.183 286.04 133.824 286.256 133.418 286.399C133.021 286.535 132.615 286.602 132.201 286.602C131.787 286.602 131.377 286.535 130.971 286.399C130.574 286.256 130.215 286.04 129.893 285.753C129.581 285.457 129.327 285.085 129.133 284.637C128.938 284.189 128.841 283.656 128.841 283.039C128.841 282.422 128.938 281.89 129.133 281.442C129.327 280.994 129.581 280.626 129.893 280.339C130.215 280.043 130.574 279.823 130.971 279.679C131.377 279.536 131.787 279.464 132.201 279.464ZM136.804 286.438V284.713H138.529V286.438H136.804Z" fill="#9394A1" fill-opacity="0.8"/>
<path d="M88.4352 305.858C88.4352 307.314 88.2599 308.568 87.9092 309.621C87.5585 310.665 87.0401 311.526 86.354 312.205C85.6678 312.876 84.8178 313.371 83.8038 313.692C82.7899 314.012 81.6197 314.172 80.2931 314.172H79.0467V312.434H80.4304C81.4138 312.434 82.2639 312.335 82.9805 312.136C83.6971 311.938 84.2918 311.648 84.7644 311.267C85.2447 310.878 85.6107 310.41 85.8622 309.861C86.1138 309.304 86.2701 308.671 86.3311 307.962L86.3768 307.494C85.8965 307.776 85.3438 308.004 84.7187 308.18C84.0935 308.347 83.415 308.431 82.6832 308.431C81.9284 308.431 81.2652 308.321 80.6934 308.1C80.1216 307.879 79.6451 307.57 79.2639 307.173C78.8904 306.777 78.6083 306.308 78.4177 305.767C78.2271 305.218 78.1318 304.623 78.1318 303.983C78.1318 303.289 78.2576 302.641 78.5092 302.039C78.7608 301.437 79.1115 300.914 79.5613 300.472C80.0187 300.022 80.5638 299.668 81.1965 299.409C81.8293 299.149 82.5269 299.02 83.2892 299.02C84.0287 299.02 84.7111 299.142 85.3362 299.386C85.969 299.63 86.5141 300.026 86.9715 300.575C87.4289 301.116 87.7872 301.822 88.0464 302.691C88.3056 303.56 88.4352 304.616 88.4352 305.858ZM83.1978 300.655C82.7708 300.655 82.3744 300.728 82.0085 300.872C81.6502 301.01 81.3376 301.215 81.0708 301.49C80.8116 301.757 80.6057 302.088 80.4532 302.485C80.3008 302.881 80.2245 303.335 80.2245 303.846C80.2245 304.311 80.2779 304.726 80.3846 305.092C80.499 305.458 80.6705 305.771 80.8992 306.03C81.1356 306.281 81.4367 306.476 81.8026 306.613C82.1686 306.75 82.6031 306.819 83.1063 306.819C83.3884 306.819 83.6781 306.792 83.9754 306.739C84.2803 306.685 84.5738 306.613 84.8559 306.522C85.1456 306.43 85.4201 306.323 85.6793 306.201C85.9385 306.079 86.171 305.95 86.3768 305.813C86.3768 304.829 86.3044 304.01 86.1596 303.354C86.0147 302.691 85.8051 302.161 85.5306 301.764C85.2562 301.36 84.9207 301.074 84.5243 300.907C84.1355 300.739 83.6933 300.655 83.1978 300.655ZM102.328 310.421C102.328 311.054 102.199 311.618 101.94 312.113C101.68 312.601 101.318 313.013 100.853 313.349C100.388 313.684 99.8393 313.939 99.2066 314.115C98.5738 314.29 97.8877 314.378 97.1482 314.378C96.3324 314.378 95.612 314.286 94.9869 314.103C94.3693 313.92 93.8509 313.665 93.4316 313.337C93.0123 313.009 92.6959 312.62 92.4825 312.171C92.269 311.721 92.1623 311.225 92.1623 310.684C92.1623 309.769 92.4177 308.98 92.9285 308.317C93.4392 307.654 94.2283 307.051 95.2956 306.51C94.3198 306.015 93.607 305.466 93.1572 304.863C92.7074 304.253 92.4825 303.556 92.4825 302.771C92.4825 302.29 92.5816 301.825 92.7798 301.376C92.978 300.926 93.2753 300.526 93.6718 300.175C94.0758 299.824 94.579 299.546 95.1813 299.34C95.7835 299.127 96.4925 299.02 97.3083 299.02C98.0783 299.02 98.7529 299.104 99.3323 299.271C99.9194 299.432 100.411 299.664 100.808 299.969C101.204 300.274 101.501 300.644 101.699 301.078C101.898 301.513 101.997 301.997 101.997 302.531C101.997 303.4 101.753 304.139 101.265 304.749C100.785 305.359 100.099 305.893 99.2066 306.35C99.6487 306.571 100.06 306.815 100.442 307.082C100.823 307.349 101.154 307.646 101.436 307.974C101.719 308.302 101.936 308.668 102.088 309.072C102.248 309.476 102.328 309.925 102.328 310.421ZM99.9613 302.691C99.9613 302.012 99.7212 301.509 99.2409 301.181C98.7682 300.846 98.1011 300.678 97.2396 300.678C96.3858 300.678 95.7187 300.842 95.2384 301.17C94.7658 301.498 94.5294 301.989 94.5294 302.645C94.5294 302.942 94.5866 303.217 94.701 303.468C94.8153 303.72 94.9907 303.956 95.227 304.177C95.471 304.398 95.7721 304.616 96.1304 304.829C96.4887 305.043 96.9156 305.26 97.4112 305.481C98.2727 305.077 98.913 304.658 99.3323 304.223C99.7516 303.781 99.9613 303.27 99.9613 302.691ZM100.167 310.57C100.167 310.288 100.121 310.013 100.03 309.746C99.9384 309.48 99.7745 309.216 99.5382 308.957C99.3019 308.698 98.9855 308.439 98.589 308.18C98.1926 307.92 97.6894 307.654 97.0796 307.379C96.5611 307.631 96.1228 307.882 95.7645 308.134C95.4138 308.378 95.1279 308.629 94.9068 308.889C94.6933 309.14 94.5409 309.403 94.4494 309.678C94.3579 309.952 94.3122 310.242 94.3122 310.547C94.3122 310.89 94.3846 311.195 94.5294 311.462C94.6819 311.721 94.8877 311.942 95.147 312.125C95.4062 312.308 95.7149 312.445 96.0732 312.537C96.4315 312.628 96.8203 312.674 97.2396 312.674C97.6437 312.674 98.0249 312.632 98.3832 312.548C98.7415 312.464 99.0503 312.338 99.3095 312.171C99.5763 311.995 99.786 311.778 99.9384 311.519C100.091 311.252 100.167 310.936 100.167 310.57ZM116.142 314.172H106.296V312.388L110.161 308.546C110.794 307.92 111.308 307.379 111.705 306.922C112.101 306.464 112.41 306.049 112.631 305.675C112.852 305.294 113.001 304.936 113.077 304.6C113.153 304.265 113.191 303.903 113.191 303.514C113.191 303.148 113.142 302.801 113.043 302.473C112.943 302.138 112.791 301.844 112.585 301.593C112.379 301.341 112.113 301.143 111.785 300.998C111.457 300.853 111.064 300.781 110.607 300.781C109.974 300.781 109.398 300.922 108.88 301.204C108.362 301.486 107.885 301.852 107.451 302.302L106.353 300.987C106.917 300.392 107.565 299.916 108.297 299.557C109.036 299.199 109.894 299.02 110.87 299.02C111.533 299.02 112.135 299.119 112.677 299.317C113.226 299.515 113.698 299.801 114.095 300.175C114.491 300.548 114.796 301.006 115.01 301.547C115.231 302.088 115.341 302.698 115.341 303.377C115.341 303.949 115.265 304.478 115.112 304.966C114.96 305.454 114.727 305.942 114.415 306.43C114.11 306.91 113.721 307.41 113.248 307.928C112.783 308.446 112.231 309.014 111.59 309.632L108.88 312.274H116.142V314.172ZM144.511 310.867H141.961V314.172H139.926V310.867H132.733V309.117L139.102 299.226H141.961V309.117H144.511V310.867ZM139.926 301.147L134.722 309.117H139.926V301.147ZM157.295 309.632C157.295 310.288 157.162 310.905 156.895 311.485C156.628 312.056 156.228 312.559 155.694 312.994C155.161 313.421 154.49 313.76 153.682 314.012C152.874 314.256 151.932 314.378 150.857 314.378C150.262 314.378 149.729 314.359 149.256 314.321C148.783 314.282 148.341 314.233 147.93 314.172V312.388C148.402 312.472 148.902 312.537 149.428 312.582C149.954 312.628 150.491 312.651 151.04 312.651C151.787 312.651 152.424 312.586 152.95 312.457C153.483 312.319 153.918 312.125 154.253 311.873C154.589 311.622 154.833 311.317 154.985 310.958C155.138 310.6 155.214 310.196 155.214 309.746C155.214 309.335 155.123 308.976 154.94 308.671C154.757 308.366 154.497 308.111 154.162 307.905C153.834 307.699 153.438 307.547 152.973 307.448C152.515 307.341 152.012 307.288 151.463 307.288H149.759V305.652H151.486C151.936 305.652 152.344 305.595 152.71 305.481C153.083 305.359 153.4 305.187 153.659 304.966C153.926 304.745 154.128 304.475 154.265 304.154C154.41 303.827 154.482 303.457 154.482 303.045C154.482 302.245 154.238 301.661 153.75 301.295C153.262 300.93 152.546 300.747 151.6 300.747C151.097 300.747 150.579 300.796 150.045 300.895C149.511 300.994 148.94 301.143 148.33 301.341V299.603C148.589 299.512 148.863 299.432 149.153 299.363C149.451 299.287 149.744 299.226 150.034 299.18C150.331 299.127 150.625 299.088 150.914 299.066C151.204 299.035 151.482 299.02 151.749 299.02C152.542 299.02 153.239 299.108 153.842 299.283C154.444 299.451 154.947 299.695 155.351 300.015C155.755 300.335 156.06 300.724 156.266 301.181C156.472 301.639 156.575 302.153 156.575 302.725C156.575 303.579 156.354 304.295 155.912 304.875C155.477 305.454 154.879 305.915 154.116 306.259C154.505 306.319 154.886 306.441 155.26 306.624C155.641 306.807 155.98 307.044 156.278 307.333C156.582 307.616 156.826 307.951 157.009 308.34C157.2 308.729 157.295 309.159 157.295 309.632ZM171.269 314.172H161.88V312.319H165.722V301.41L162.143 303.354L161.411 301.661L166.168 299.157H167.929V312.319H171.269V314.172Z" fill="#D9D9DE"/>
<rect opacity="0.05" x="76.9883" y="337.672" width="217.883" height="1.171" fill="url(#paint3_linear_4470_2902)"/>
<path d="M77.9139 355.702H81.3755C81.7897 355.702 82.1954 355.736 82.5927 355.803C82.99 355.871 83.345 355.993 83.6578 356.171C83.9706 356.34 84.2199 356.577 84.4059 356.881C84.5919 357.185 84.6849 357.574 84.6849 358.047C84.6849 358.479 84.5792 358.872 84.3679 359.227C84.165 359.582 83.9283 359.844 83.6578 360.013C83.8438 360.097 84.0213 360.203 84.1903 360.33C84.3594 360.448 84.5073 360.592 84.6341 360.761C84.7609 360.93 84.8581 361.133 84.9258 361.37C85.0018 361.598 85.0399 361.864 85.0399 362.168C85.0399 362.667 84.9469 363.09 84.7609 363.436C84.5834 363.774 84.3383 364.053 84.0255 364.273C83.7127 364.493 83.345 364.654 82.9224 364.755C82.5082 364.848 82.0686 364.895 81.6037 364.895H77.9139V355.702ZM79.5242 363.601H81.6671C82.2419 363.601 82.6688 363.479 82.9477 363.233C83.2351 362.98 83.3788 362.625 83.3788 362.168C83.3788 361.695 83.2309 361.344 82.9351 361.116C82.6476 360.888 82.1954 360.774 81.5783 360.774H79.5242V363.601ZM79.5242 359.544H81.5276C82.001 359.544 82.3729 359.438 82.6434 359.227C82.9139 359.015 83.0492 358.681 83.0492 358.225C83.0492 357.819 82.9097 357.515 82.6307 357.312C82.3518 357.101 81.9841 356.995 81.5276 356.995H79.5242V359.544ZM87.5661 361.915C87.5914 362.236 87.659 362.515 87.7689 362.752C87.8873 362.98 88.031 363.174 88.2 363.335C88.3776 363.496 88.5678 363.614 88.7706 363.69C88.982 363.766 89.1975 363.804 89.4173 363.804C89.8146 363.804 90.1569 363.728 90.4444 363.576C90.7402 363.415 90.9558 363.174 91.091 362.853H92.5745C92.4985 363.124 92.3759 363.394 92.2068 363.665C92.0378 363.927 91.8222 364.163 91.5602 364.375C91.3066 364.578 91.0065 364.742 90.6599 364.869C90.3133 364.996 89.9203 365.059 89.4807 365.059C88.9312 365.059 88.441 364.962 88.0099 364.768C87.5872 364.573 87.2279 364.311 86.9321 363.982C86.6362 363.652 86.4122 363.267 86.2601 362.828C86.1079 362.388 86.0318 361.923 86.0318 361.433C86.0318 360.917 86.1121 360.448 86.2727 360.026C86.4418 359.594 86.6743 359.222 86.9701 358.91C87.2744 358.597 87.6295 358.356 88.0352 358.187C88.4494 358.009 88.8974 357.921 89.3793 357.921C89.9034 357.921 90.3725 358.022 90.7867 358.225C91.2094 358.428 91.5602 358.707 91.8391 359.062C92.1265 359.417 92.3421 359.84 92.4858 360.33C92.6295 360.812 92.6844 361.34 92.6506 361.915H87.5661ZM89.3793 359.1C89.2017 359.1 89.0115 359.129 88.8087 359.189C88.6142 359.248 88.4283 359.345 88.2508 359.48C88.0817 359.607 87.9338 359.78 87.807 360C87.6802 360.22 87.5999 360.49 87.5661 360.812H91.1164C91.1079 360.55 91.053 360.313 90.9515 360.102C90.8501 359.882 90.7191 359.7 90.5585 359.556C90.4063 359.413 90.2246 359.303 90.0132 359.227C89.8104 359.142 89.599 359.1 89.3793 359.1ZM98.3086 361.687C97.7676 361.737 97.3069 361.796 96.9265 361.864C96.5461 361.932 96.2333 362.016 95.9882 362.118C95.7431 362.219 95.5613 362.342 95.443 362.485C95.3331 362.621 95.2781 362.785 95.2781 362.98C95.2781 363.276 95.3923 363.508 95.6205 363.677C95.8487 363.846 96.153 363.931 96.5334 363.931C97.0913 363.931 97.5267 363.791 97.8394 363.512C98.1522 363.225 98.3086 362.79 98.3086 362.206V361.687ZM96.2038 365.059C95.8318 365.059 95.4895 365.009 95.1767 364.907C94.8724 364.814 94.6061 364.679 94.3779 364.501C94.1581 364.324 93.9848 364.113 93.858 363.867C93.7397 363.614 93.6805 363.331 93.6805 363.018C93.6805 362.595 93.8031 362.244 94.0482 361.966C94.2933 361.687 94.623 361.458 95.0372 361.281C95.4599 361.103 95.9459 360.968 96.4954 360.875C97.0533 360.782 97.645 360.702 98.2705 360.634V360.507C98.2705 360.22 98.2325 359.979 98.1564 359.785C98.0803 359.582 97.9747 359.425 97.8394 359.315C97.7126 359.197 97.5605 359.113 97.383 359.062C97.2139 359.011 97.0364 358.986 96.8504 358.986C96.47 358.986 96.1488 359.087 95.8868 359.29C95.6332 359.493 95.4979 359.802 95.481 360.216H93.9975C94.0228 359.869 94.1116 359.552 94.2638 359.265C94.4159 358.977 94.6188 358.732 94.8724 358.529C95.126 358.318 95.4218 358.157 95.76 358.047C96.1065 357.929 96.4869 357.87 96.9011 357.87C97.3069 357.87 97.6873 357.921 98.0423 358.022C98.3973 358.124 98.7059 358.288 98.9679 358.517C99.23 358.745 99.4328 359.049 99.5765 359.43C99.7203 359.802 99.7879 360.258 99.7794 360.799C99.7794 360.884 99.7752 360.993 99.7667 361.129C99.7667 361.264 99.7667 361.412 99.7667 361.572C99.7667 361.733 99.7625 361.902 99.7541 362.08C99.7541 362.249 99.7541 362.409 99.7541 362.561C99.7541 362.993 99.771 363.419 99.8048 363.842C99.8386 364.256 99.8893 364.607 99.9569 364.895H98.5749C98.5495 364.751 98.5241 364.62 98.4988 364.501C98.4819 364.383 98.465 364.206 98.4481 363.969C98.2283 364.341 97.924 364.616 97.5351 364.793C97.1547 364.971 96.7109 365.059 96.2038 365.059ZM104.377 357.921C104.749 357.921 105.104 357.98 105.442 358.098C105.788 358.217 106.097 358.386 106.367 358.605C106.638 358.817 106.866 359.075 107.052 359.379C107.238 359.683 107.365 360.026 107.433 360.406H105.962C105.894 360.042 105.717 359.747 105.429 359.518C105.142 359.29 104.791 359.176 104.377 359.176C104.14 359.176 103.912 359.222 103.692 359.315C103.481 359.4 103.291 359.539 103.121 359.734C102.961 359.92 102.83 360.157 102.728 360.444C102.635 360.731 102.589 361.078 102.589 361.484C102.589 361.889 102.635 362.24 102.728 362.536C102.83 362.824 102.961 363.064 103.121 363.259C103.291 363.445 103.481 363.584 103.692 363.677C103.903 363.762 104.119 363.804 104.339 363.804C104.525 363.804 104.706 363.783 104.884 363.741C105.061 363.698 105.226 363.627 105.378 363.525C105.531 363.424 105.662 363.297 105.772 363.145C105.881 362.984 105.962 362.79 106.012 362.561H107.483C107.407 362.959 107.268 363.314 107.065 363.627C106.862 363.939 106.617 364.201 106.329 364.413C106.042 364.624 105.725 364.785 105.378 364.895C105.032 365.004 104.677 365.059 104.313 365.059C103.815 365.059 103.362 364.971 102.957 364.793C102.559 364.607 102.217 364.358 101.93 364.045C101.642 363.724 101.418 363.348 101.258 362.916C101.105 362.477 101.029 362.004 101.029 361.496C101.029 360.989 101.105 360.52 101.258 360.089C101.418 359.649 101.642 359.269 101.93 358.948C102.225 358.627 102.58 358.377 102.995 358.2C103.409 358.014 103.87 357.921 104.377 357.921ZM109.952 361.496C109.952 361.894 109.998 362.24 110.091 362.536C110.193 362.824 110.324 363.064 110.484 363.259C110.654 363.445 110.848 363.589 111.068 363.69C111.287 363.783 111.516 363.829 111.752 363.829C111.989 363.829 112.217 363.783 112.437 363.69C112.657 363.589 112.847 363.445 113.008 363.259C113.177 363.064 113.308 362.824 113.401 362.536C113.502 362.24 113.553 361.894 113.553 361.496C113.553 361.108 113.502 360.765 113.401 360.469C113.308 360.173 113.177 359.928 113.008 359.734C112.847 359.539 112.657 359.396 112.437 359.303C112.217 359.201 111.989 359.151 111.752 359.151C111.516 359.151 111.287 359.201 111.068 359.303C110.848 359.396 110.654 359.539 110.484 359.734C110.324 359.928 110.193 360.173 110.091 360.469C109.998 360.765 109.952 361.108 109.952 361.496ZM111.752 357.921C112.167 357.921 112.572 357.993 112.97 358.136C113.375 358.28 113.735 358.5 114.047 358.796C114.369 359.083 114.626 359.451 114.821 359.899C115.015 360.347 115.113 360.879 115.113 361.496C115.113 362.113 115.015 362.646 114.821 363.094C114.626 363.542 114.369 363.914 114.047 364.21C113.735 364.497 113.375 364.713 112.97 364.856C112.572 364.992 112.167 365.059 111.752 365.059C111.338 365.059 110.928 364.992 110.522 364.856C110.125 364.713 109.766 364.497 109.445 364.21C109.132 363.914 108.878 363.542 108.684 363.094C108.49 362.646 108.392 362.113 108.392 361.496C108.392 360.879 108.49 360.347 108.684 359.899C108.878 359.451 109.132 359.083 109.445 358.796C109.766 358.5 110.125 358.28 110.522 358.136C110.928 357.993 111.338 357.921 111.752 357.921ZM118.055 359.024C118.249 358.669 118.52 358.398 118.866 358.212C119.221 358.018 119.64 357.921 120.121 357.921C120.536 357.921 120.886 357.984 121.174 358.111C121.47 358.238 121.711 358.419 121.897 358.656C122.083 358.893 122.218 359.176 122.302 359.506C122.395 359.835 122.442 360.203 122.442 360.609V364.895H120.933V360.977C120.933 360.748 120.92 360.524 120.895 360.304C120.87 360.085 120.81 359.89 120.717 359.721C120.633 359.544 120.502 359.404 120.324 359.303C120.155 359.201 119.927 359.151 119.64 359.151C119.352 359.151 119.107 359.206 118.904 359.315C118.701 359.417 118.536 359.561 118.41 359.747C118.283 359.933 118.19 360.157 118.131 360.419C118.08 360.681 118.055 360.964 118.055 361.268V364.895H116.546V358.073H118.055V359.024ZM128.234 355.702L130.567 362.993L132.837 355.702H134.536L131.391 364.895H129.667L126.484 355.702H128.234ZM136.666 361.915C136.691 362.236 136.759 362.515 136.868 362.752C136.987 362.98 137.13 363.174 137.3 363.335C137.477 363.496 137.667 363.614 137.87 363.69C138.081 363.766 138.297 363.804 138.517 363.804C138.914 363.804 139.256 363.728 139.544 363.576C139.84 363.415 140.055 363.174 140.19 362.853H141.674C141.598 363.124 141.475 363.394 141.306 363.665C141.137 363.927 140.922 364.163 140.66 364.375C140.406 364.578 140.106 364.742 139.759 364.869C139.413 364.996 139.02 365.059 138.58 365.059C138.031 365.059 137.54 364.962 137.109 364.768C136.687 364.573 136.327 364.311 136.032 363.982C135.736 363.652 135.512 363.267 135.36 362.828C135.207 362.388 135.131 361.923 135.131 361.433C135.131 360.917 135.212 360.448 135.372 360.026C135.541 359.594 135.774 359.222 136.07 358.91C136.374 358.597 136.729 358.356 137.135 358.187C137.549 358.009 137.997 357.921 138.479 357.921C139.003 357.921 139.472 358.022 139.886 358.225C140.309 358.428 140.66 358.707 140.939 359.062C141.226 359.417 141.442 359.84 141.585 360.33C141.729 360.812 141.784 361.34 141.75 361.915H136.666ZM138.479 359.1C138.301 359.1 138.111 359.129 137.908 359.189C137.714 359.248 137.528 359.345 137.35 359.48C137.181 359.607 137.033 359.78 136.906 360C136.78 360.22 136.699 360.49 136.666 360.812H140.216C140.207 360.55 140.152 360.313 140.051 360.102C139.95 359.882 139.819 359.7 139.658 359.556C139.506 359.413 139.324 359.303 139.113 359.227C138.91 359.142 138.698 359.1 138.479 359.1ZM144.695 359.024C144.889 358.669 145.16 358.398 145.506 358.212C145.861 358.018 146.28 357.921 146.761 357.921C147.176 357.921 147.526 357.984 147.814 358.111C148.11 358.238 148.351 358.419 148.537 358.656C148.722 358.893 148.858 359.176 148.942 359.506C149.035 359.835 149.082 360.203 149.082 360.609V364.895H147.573V360.977C147.573 360.748 147.56 360.524 147.535 360.304C147.509 360.085 147.45 359.89 147.357 359.721C147.273 359.544 147.142 359.404 146.964 359.303C146.795 359.201 146.567 359.151 146.28 359.151C145.992 359.151 145.747 359.206 145.544 359.315C145.341 359.417 145.176 359.561 145.05 359.747C144.923 359.933 144.83 360.157 144.771 360.419C144.72 360.681 144.695 360.964 144.695 361.268V364.895H143.186V358.073H144.695V359.024ZM151.061 356.272H152.57V358.073H153.939V359.163H152.57V362.878C152.57 363.225 152.625 363.457 152.735 363.576C152.845 363.686 153.06 363.741 153.382 363.741H153.927V364.895H152.811C152.447 364.895 152.152 364.869 151.923 364.818C151.695 364.759 151.518 364.662 151.391 364.527C151.264 364.392 151.175 364.21 151.125 363.982C151.082 363.745 151.061 363.453 151.061 363.107V359.163H150.047V358.073H151.061V356.272ZM159.558 363.956C159.363 364.311 159.093 364.586 158.746 364.78C158.408 364.966 158.006 365.059 157.541 365.059C157.136 365.059 156.789 364.996 156.502 364.869C156.214 364.742 155.978 364.561 155.792 364.324C155.606 364.087 155.47 363.804 155.386 363.474C155.301 363.145 155.259 362.777 155.259 362.371V358.073H156.768V362.004C156.768 362.232 156.781 362.456 156.806 362.676C156.831 362.895 156.886 363.094 156.971 363.272C157.055 363.441 157.182 363.576 157.351 363.677C157.52 363.779 157.744 363.829 158.023 363.829C158.302 363.829 158.539 363.779 158.733 363.677C158.936 363.567 159.097 363.419 159.215 363.233C159.334 363.048 159.418 362.824 159.469 362.561C159.528 362.299 159.558 362.016 159.558 361.712V358.073H161.066V364.895H159.558V363.956ZM166.686 359.607C166.432 359.582 166.192 359.569 165.963 359.569C165.727 359.569 165.515 359.599 165.329 359.658C165.143 359.709 164.987 359.802 164.86 359.937C164.733 360.064 164.636 360.241 164.569 360.469C164.501 360.698 164.467 360.981 164.467 361.319V364.895H162.958V358.073H164.442V359.29C164.628 358.91 164.877 358.614 165.19 358.403C165.511 358.183 165.879 358.069 166.293 358.06C166.352 358.06 166.416 358.064 166.483 358.073C166.559 358.073 166.627 358.077 166.686 358.086V359.607ZM168.91 361.915C168.935 362.236 169.003 362.515 169.113 362.752C169.231 362.98 169.375 363.174 169.544 363.335C169.721 363.496 169.911 363.614 170.114 363.69C170.326 363.766 170.541 363.804 170.761 363.804C171.158 363.804 171.501 363.728 171.788 363.576C172.084 363.415 172.3 363.174 172.435 362.853H173.918C173.842 363.124 173.72 363.394 173.551 363.665C173.382 363.927 173.166 364.163 172.904 364.375C172.65 364.578 172.35 364.742 172.004 364.869C171.657 364.996 171.264 365.059 170.824 365.059C170.275 365.059 169.785 364.962 169.354 364.768C168.931 364.573 168.572 364.311 168.276 363.982C167.98 363.652 167.756 363.267 167.604 362.828C167.452 362.388 167.376 361.923 167.376 361.433C167.376 360.917 167.456 360.448 167.616 360.026C167.786 359.594 168.018 359.222 168.314 358.91C168.618 358.597 168.973 358.356 169.379 358.187C169.793 358.009 170.241 357.921 170.723 357.921C171.247 357.921 171.716 358.022 172.13 358.225C172.553 358.428 172.904 358.707 173.183 359.062C173.47 359.417 173.686 359.84 173.83 360.33C173.973 360.812 174.028 361.34 173.994 361.915H168.91ZM170.723 359.1C170.545 359.1 170.355 359.129 170.152 359.189C169.958 359.248 169.772 359.345 169.595 359.48C169.425 359.607 169.278 359.78 169.151 360C169.024 360.22 168.944 360.49 168.91 360.812H172.46C172.452 360.55 172.397 360.313 172.295 360.102C172.194 359.882 172.063 359.7 171.902 359.556C171.75 359.413 171.568 359.303 171.357 359.227C171.154 359.142 170.943 359.1 170.723 359.1ZM179.323 359.937C179.238 359.624 179.061 359.404 178.79 359.277C178.528 359.142 178.207 359.075 177.826 359.075C177.497 359.075 177.201 359.142 176.939 359.277C176.685 359.413 176.558 359.594 176.558 359.823C176.558 360.051 176.635 360.228 176.787 360.355C176.947 360.482 177.176 360.575 177.471 360.634L178.435 360.824C178.782 360.892 179.103 360.972 179.399 361.065C179.695 361.158 179.952 361.285 180.172 361.446C180.392 361.598 180.561 361.788 180.679 362.016C180.806 362.244 180.87 362.523 180.87 362.853C180.87 363.208 180.789 363.525 180.629 363.804C180.477 364.075 180.265 364.303 179.995 364.489C179.733 364.675 179.428 364.814 179.082 364.907C178.735 365.009 178.367 365.059 177.979 365.059C177.556 365.059 177.171 365.004 176.825 364.895C176.487 364.776 176.191 364.62 175.937 364.425C175.684 364.223 175.476 363.986 175.316 363.715C175.164 363.436 175.066 363.136 175.024 362.815H176.495C176.563 363.17 176.723 363.445 176.977 363.639C177.23 363.825 177.581 363.918 178.029 363.918C178.427 363.918 178.752 363.842 179.006 363.69C179.268 363.529 179.399 363.31 179.399 363.031C179.399 362.752 179.285 362.545 179.056 362.409C178.837 362.266 178.558 362.16 178.22 362.092L177.192 361.889C176.905 361.83 176.635 361.754 176.381 361.661C176.136 361.56 175.92 361.433 175.734 361.281C175.548 361.12 175.4 360.93 175.291 360.71C175.189 360.482 175.138 360.211 175.138 359.899C175.138 359.594 175.214 359.324 175.367 359.087C175.519 358.842 175.722 358.635 175.975 358.466C176.229 358.288 176.52 358.153 176.85 358.06C177.188 357.967 177.543 357.921 177.915 357.921C178.245 357.921 178.566 357.963 178.879 358.047C179.192 358.124 179.475 358.246 179.728 358.415C179.982 358.584 180.198 358.796 180.375 359.049C180.553 359.303 180.675 359.599 180.743 359.937H179.323Z" fill="#9394A1" fill-opacity="0.8"/>
<path d="M88.4352 379.535L82.1686 392.629H79.8929L86.3997 379.535H78.3262V377.683H88.4352V379.535ZM102.203 392.629H92.8141V390.776H96.6564V379.867L93.0771 381.811L92.3453 380.118L97.1024 377.614H98.8635V390.776H102.203V392.629ZM116.885 389.324H114.335V392.629H112.299V389.324H105.106V387.574L111.476 377.683H114.335V387.574H116.885V389.324ZM112.299 379.604L107.096 387.574H112.299V379.604ZM143.482 388.089C143.482 388.745 143.349 389.362 143.082 389.942C142.815 390.513 142.415 391.016 141.881 391.451C141.347 391.878 140.677 392.217 139.868 392.469C139.06 392.713 138.119 392.835 137.044 392.835C136.449 392.835 135.916 392.816 135.443 392.778C134.97 392.739 134.528 392.69 134.116 392.629V390.845C134.589 390.929 135.088 390.994 135.614 391.039C136.14 391.085 136.678 391.108 137.227 391.108C137.974 391.108 138.611 391.043 139.137 390.914C139.67 390.776 140.105 390.582 140.44 390.33C140.776 390.079 141.02 389.774 141.172 389.416C141.325 389.057 141.401 388.653 141.401 388.203C141.401 387.792 141.309 387.433 141.126 387.128C140.943 386.823 140.684 386.568 140.349 386.362C140.021 386.156 139.625 386.004 139.159 385.905C138.702 385.798 138.199 385.745 137.65 385.745H135.946V384.109H137.673C138.123 384.109 138.531 384.052 138.896 383.938C139.27 383.816 139.586 383.644 139.846 383.423C140.112 383.202 140.314 382.932 140.452 382.611C140.597 382.284 140.669 381.914 140.669 381.502C140.669 380.702 140.425 380.118 139.937 379.753C139.449 379.387 138.733 379.204 137.787 379.204C137.284 379.204 136.766 379.253 136.232 379.352C135.698 379.451 135.127 379.6 134.517 379.798V378.06C134.776 377.969 135.05 377.889 135.34 377.82C135.637 377.744 135.931 377.683 136.221 377.637C136.518 377.584 136.811 377.545 137.101 377.523C137.391 377.492 137.669 377.477 137.936 377.477C138.729 377.477 139.426 377.565 140.029 377.74C140.631 377.908 141.134 378.152 141.538 378.472C141.942 378.792 142.247 379.181 142.453 379.638C142.659 380.096 142.762 380.61 142.762 381.182C142.762 382.036 142.541 382.752 142.098 383.332C141.664 383.911 141.065 384.372 140.303 384.716C140.692 384.777 141.073 384.899 141.447 385.081C141.828 385.264 142.167 385.501 142.464 385.79C142.769 386.073 143.013 386.408 143.196 386.797C143.387 387.186 143.482 387.616 143.482 388.089ZM157.924 385.162C157.924 386.305 157.81 387.35 157.581 388.295C157.352 389.233 157.006 390.041 156.541 390.719C156.075 391.39 155.496 391.912 154.802 392.286C154.116 392.652 153.308 392.835 152.378 392.835C151.578 392.835 150.849 392.686 150.194 392.389C149.538 392.084 148.978 391.619 148.513 390.994C148.048 390.368 147.689 389.572 147.438 388.604C147.186 387.635 147.06 386.488 147.06 385.162C147.06 384.018 147.175 382.974 147.404 382.028C147.64 381.083 147.987 380.275 148.444 379.604C148.909 378.925 149.489 378.403 150.182 378.037C150.876 377.664 151.684 377.477 152.607 377.477C153.407 377.477 154.135 377.629 154.791 377.934C155.447 378.232 156.007 378.697 156.472 379.329C156.937 379.955 157.295 380.751 157.547 381.719C157.798 382.688 157.924 383.835 157.924 385.162ZM155.912 385.23C155.912 384.971 155.9 384.716 155.877 384.464C155.862 384.205 155.843 383.953 155.82 383.709L149.496 388.409C149.611 388.806 149.755 389.172 149.931 389.507C150.106 389.842 150.316 390.132 150.56 390.376C150.811 390.612 151.093 390.799 151.406 390.936C151.726 391.066 152.088 391.131 152.492 391.131C153.011 391.131 153.48 391.005 153.899 390.753C154.326 390.502 154.688 390.128 154.985 389.633C155.283 389.137 155.511 388.524 155.671 387.792C155.832 387.052 155.912 386.198 155.912 385.23ZM149.073 385.093C149.073 385.329 149.073 385.566 149.073 385.802C149.081 386.038 149.096 386.267 149.119 386.488L155.443 381.811C155.328 381.422 155.184 381.068 155.008 380.747C154.833 380.427 154.623 380.153 154.379 379.924C154.135 379.688 153.857 379.505 153.544 379.375C153.232 379.246 152.881 379.181 152.492 379.181C151.974 379.181 151.501 379.307 151.074 379.558C150.655 379.81 150.297 380.187 149.999 380.69C149.702 381.186 149.473 381.803 149.313 382.543C149.153 383.275 149.073 384.125 149.073 385.093ZM172.138 389.324H169.588V392.629H167.552V389.324H160.359V387.574L166.729 377.683H169.588V387.574H172.138V389.324ZM167.552 379.604L162.349 387.574H167.552V379.604Z" fill="#D9D9DE"/>
</g>
</g>
</g>
<defs>
<filter id="filter0_i_4470_2902" x="51.2266" y="66" width="269" height="382.914" filterUnits="userSpaceOnUse" color-interpolation-filters="sRGB">
<feFlood flood-opacity="0" result="BackgroundImageFix"/>
<feBlend mode="normal" in="SourceGraphic" in2="BackgroundImageFix" result="shape"/>
<feColorMatrix in="SourceAlpha" type="matrix" values="0 0 0 0 0 0 0 0 0 0 0 0 0 0 0 0 0 0 127 0" result="hardAlpha"/>
<feOffset dy="1.171"/>
<feComposite in2="hardAlpha" operator="arithmetic" k2="-1" k3="1"/>
<feColorMatrix type="matrix" values="0 0 0 0 1 0 0 0 0 1 0 0 0 0 1 0 0 0 0.06 0"/>
<feBlend mode="normal" in2="shape" result="effect1_innerShadow_4470_2902"/>
</filter>
<filter id="filter1_i_4470_2902" x="55.9102" y="70.6836" width="260.039" height="378.23" filterUnits="userSpaceOnUse" color-interpolation-filters="sRGB">
<feFlood flood-opacity="0" result="BackgroundImageFix"/>
<feBlend mode="normal" in="SourceGraphic" in2="BackgroundImageFix" result="shape"/>
<feColorMatrix in="SourceAlpha" type="matrix" values="0 0 0 0 0 0 0 0 0 0 0 0 0 0 0 0 0 0 127 0" result="hardAlpha"/>
<feOffset/>
<feGaussianBlur stdDeviation="1.171"/>
<feComposite in2="hardAlpha" operator="arithmetic" k2="-1" k3="1"/>
<feColorMatrix type="matrix" values="0 0 0 0 0 0 0 0 0 0 0 0 0 0 0 0 0 0 0.35 0"/>
<feBlend mode="normal" in2="shape" result="effect1_innerShadow_4470_2902"/>
</filter>
<radialGradient id="paint0_radial_4470_2902" cx="0" cy="0" r="1" gradientUnits="userSpaceOnUse" gradientTransform="translate(196.335 38.6316) scale(355.445 368.875)">
<stop offset="0.5238"/>
<stop offset="1" stop-opacity="0"/>
</radialGradient>
<linearGradient id="paint1_linear_4470_2902" x1="76.9883" y1="181.343" x2="294.871" y2="181.343" gradientUnits="userSpaceOnUse">
<stop stop-color="white" stop-opacity="0"/>
<stop offset="0.1" stop-color="white"/>
<stop offset="0.9" stop-color="white"/>
<stop offset="1" stop-color="white" stop-opacity="0"/>
</linearGradient>
<linearGradient id="paint2_linear_4470_2902" x1="76.9883" y1="259.8" x2="294.871" y2="259.8" gradientUnits="userSpaceOnUse">
<stop stop-color="white" stop-opacity="0"/>
<stop offset="0.1" stop-color="white"/>
<stop offset="0.9" stop-color="white"/>
<stop offset="1" stop-color="white" stop-opacity="0"/>
</linearGradient>
<linearGradient id="paint3_linear_4470_2902" x1="76.9883" y1="338.257" x2="294.871" y2="338.257" gradientUnits="userSpaceOnUse">
<stop stop-color="white" stop-opacity="0"/>
<stop offset="0.1" stop-color="white"/>
<stop offset="0.9" stop-color="white"/>
<stop offset="1" stop-color="white" stop-opacity="0"/>
</linearGradient>
</defs>
</svg>
