<svg width="105" height="105" viewBox="0 0 105 105" fill="none" xmlns="http://www.w3.org/2000/svg">
<g filter="url(#filter0_ii_4470_2803)">
<g clip-path="url(#clip0_4470_2803)">
<rect width="104.24" height="104.24" rx="10.424" fill="#2F3037"/>
<rect width="104.24" height="104.24" rx="10.424" fill="url(#paint0_linear_4470_2803)"/>
<path d="M52.1186 78.1786C66.5111 78.1786 78.1786 66.5111 78.1786 52.1186C78.1786 37.7261 66.5111 26.0586 52.1186 26.0586C37.7261 26.0586 26.0586 37.7261 26.0586 52.1186C26.0586 66.5111 37.7261 78.1786 52.1186 78.1786Z" fill="black" fill-opacity="0.3"/>
<g filter="url(#filter1_ddi_4470_2803)">
<path d="M23.8102 54.7252C25.1497 54.7252 26.2755 55.7415 26.5283 57.0602C28.8372 69.0895 39.4175 78.1792 52.1192 78.1792C64.8234 78.1792 75.4012 69.0895 77.7101 57.0602C77.9629 55.7441 79.0913 54.7252 80.4282 54.7252C81.9527 54.7252 83.1853 56.0282 82.9221 57.5318C80.3604 72.2219 67.5467 83.3886 52.1192 83.3912C36.6943 83.3912 23.8806 72.2219 21.3163 57.5318C21.0557 56.0308 22.2857 54.7252 23.8102 54.7252ZM73.9757 33.9475C75.052 32.8687 76.8423 32.9234 77.7205 34.1691C80.3563 37.9133 82.1325 42.1936 82.9221 46.7039C83.1827 48.2076 81.9527 49.5132 80.4282 49.5132C79.0887 49.5132 77.9629 48.4916 77.7101 47.1782C77.0446 43.7191 75.6808 40.432 73.7021 37.5178C72.9515 36.4102 73.0271 34.8935 73.9757 33.9475ZM30.2627 33.9475C31.2112 34.8935 31.2842 36.4102 30.5337 37.5178C28.5558 40.4322 27.1929 43.7193 26.5283 47.1782C26.2755 48.4916 25.1497 49.5132 23.8102 49.5132C22.2857 49.5132 21.0557 48.2076 21.3163 46.7065C22.1052 42.1964 23.8804 37.9162 26.5152 34.1717C27.3908 32.9208 29.1838 32.8687 30.2627 33.9475ZM49.5132 23.8102C49.5132 25.1497 48.4942 26.2755 47.1782 26.5283C43.7193 27.193 40.4322 28.5559 37.5178 30.5337C36.4102 31.2842 34.8961 31.2086 33.9475 30.2627C32.8713 29.1838 32.9234 27.3908 34.1717 26.5152C37.9163 23.8812 42.1966 22.1068 46.7065 21.3189C48.2102 21.0557 49.5132 22.2857 49.5132 23.8102ZM54.7252 23.8102C54.7252 22.2857 56.0308 21.0557 57.5318 21.3189C62.0418 22.1069 66.322 23.8813 70.0667 26.5152C71.3124 27.3908 71.3671 29.1838 70.2882 30.2627C69.3422 31.2086 67.8255 31.2842 66.718 30.5337C63.8044 28.556 60.5182 27.1931 57.0602 26.5283C55.7441 26.2755 54.7252 25.1471 54.7252 23.8102Z" fill="#5E5F6E"/>
<path d="M23.8102 54.7252C25.1497 54.7252 26.2755 55.7415 26.5283 57.0602C28.8372 69.0895 39.4175 78.1792 52.1192 78.1792C64.8234 78.1792 75.4012 69.0895 77.7101 57.0602C77.9629 55.7441 79.0913 54.7252 80.4282 54.7252C81.9527 54.7252 83.1853 56.0282 82.9221 57.5318C80.3604 72.2219 67.5467 83.3886 52.1192 83.3912C36.6943 83.3912 23.8806 72.2219 21.3163 57.5318C21.0557 56.0308 22.2857 54.7252 23.8102 54.7252ZM73.9757 33.9475C75.052 32.8687 76.8423 32.9234 77.7205 34.1691C80.3563 37.9133 82.1325 42.1936 82.9221 46.7039C83.1827 48.2076 81.9527 49.5132 80.4282 49.5132C79.0887 49.5132 77.9629 48.4916 77.7101 47.1782C77.0446 43.7191 75.6808 40.432 73.7021 37.5178C72.9515 36.4102 73.0271 34.8935 73.9757 33.9475ZM30.2627 33.9475C31.2112 34.8935 31.2842 36.4102 30.5337 37.5178C28.5558 40.4322 27.1929 43.7193 26.5283 47.1782C26.2755 48.4916 25.1497 49.5132 23.8102 49.5132C22.2857 49.5132 21.0557 48.2076 21.3163 46.7065C22.1052 42.1964 23.8804 37.9162 26.5152 34.1717C27.3908 32.9208 29.1838 32.8687 30.2627 33.9475ZM49.5132 23.8102C49.5132 25.1497 48.4942 26.2755 47.1782 26.5283C43.7193 27.193 40.4322 28.5559 37.5178 30.5337C36.4102 31.2842 34.8961 31.2086 33.9475 30.2627C32.8713 29.1838 32.9234 27.3908 34.1717 26.5152C37.9163 23.8812 42.1966 22.1068 46.7065 21.3189C48.2102 21.0557 49.5132 22.2857 49.5132 23.8102ZM54.7252 23.8102C54.7252 22.2857 56.0308 21.0557 57.5318 21.3189C62.0418 22.1069 66.322 23.8813 70.0667 26.5152C71.3124 27.3908 71.3671 29.1838 70.2882 30.2627C69.3422 31.2086 67.8255 31.2842 66.718 30.5337C63.8044 28.556 60.5182 27.1931 57.0602 26.5283C55.7441 26.2755 54.7252 25.1471 54.7252 23.8102Z" fill="url(#paint1_linear_4470_2803)" fill-opacity="0.2"/>
</g>
<g filter="url(#filter2_dddi_4470_2803)">
<path d="M59.9393 44.3004C59.9393 46.3739 59.1156 48.3624 57.6495 49.8286C56.1833 51.2947 54.1948 52.1184 52.1213 52.1184C50.0478 52.1184 48.0593 51.2947 46.5932 49.8286C45.127 48.3624 44.3033 46.3739 44.3033 44.3004C44.3033 42.227 45.127 40.2384 46.5932 38.7723C48.0593 37.3061 50.0478 36.4824 52.1213 36.4824C54.1948 36.4824 56.1833 37.3061 57.6495 38.7723C59.1156 40.2384 59.9393 42.227 59.9393 44.3004ZM54.8107 57.3304C57.1511 57.3305 59.4484 57.9609 61.461 59.1554C63.4736 60.35 65.1274 62.0646 66.2484 64.1191L66.5247 64.6298C67.0615 65.6123 66.9208 66.8397 66.0895 67.5876C62.2641 71.0549 57.2842 72.9726 52.1213 72.9664C46.9589 72.9728 41.9791 71.0562 38.1532 67.5902C37.3192 66.8397 37.1811 65.6097 37.7153 64.6298L37.9942 64.1217C39.1149 62.0667 40.7685 60.3516 42.7812 59.1565C44.7938 57.9615 47.0912 57.3307 49.4319 57.3304H54.8107Z" fill="#5DE3FF"/>
</g>
</g>
</g>
<defs>
<filter id="filter0_ii_4470_2803" x="0" y="0" width="104.238" height="104.24" filterUnits="userSpaceOnUse" color-interpolation-filters="sRGB">
<feFlood flood-opacity="0" result="BackgroundImageFix"/>
<feBlend mode="normal" in="SourceGraphic" in2="BackgroundImageFix" result="shape"/>
<feColorMatrix in="SourceAlpha" type="matrix" values="0 0 0 0 0 0 0 0 0 0 0 0 0 0 0 0 0 0 127 0" result="hardAlpha"/>
<feOffset dy="2.606"/>
<feComposite in2="hardAlpha" operator="arithmetic" k2="-1" k3="1"/>
<feColorMatrix type="matrix" values="0 0 0 0 1 0 0 0 0 1 0 0 0 0 1 0 0 0 0.07 0"/>
<feBlend mode="normal" in2="shape" result="effect1_innerShadow_4470_2803"/>
<feColorMatrix in="SourceAlpha" type="matrix" values="0 0 0 0 0 0 0 0 0 0 0 0 0 0 0 0 0 0 127 0" result="hardAlpha"/>
<feMorphology radius="2.606" operator="erode" in="SourceAlpha" result="effect2_innerShadow_4470_2803"/>
<feOffset/>
<feComposite in2="hardAlpha" operator="arithmetic" k2="-1" k3="1"/>
<feColorMatrix type="matrix" values="0 0 0 0 1 0 0 0 0 1 0 0 0 0 1 0 0 0 0.04 0"/>
<feBlend mode="normal" in2="effect1_innerShadow_4470_2803" result="effect2_innerShadow_4470_2803"/>
</filter>
<filter id="filter1_ddi_4470_2803" x="13.4633" y="16.0712" width="77.3118" height="77.7434" filterUnits="userSpaceOnUse" color-interpolation-filters="sRGB">
<feFlood flood-opacity="0" result="BackgroundImageFix"/>
<feColorMatrix in="SourceAlpha" type="matrix" values="0 0 0 0 0 0 0 0 0 0 0 0 0 0 0 0 0 0 127 0" result="hardAlpha"/>
<feOffset dy="2.606"/>
<feGaussianBlur stdDeviation="3.909"/>
<feComposite in2="hardAlpha" operator="out"/>
<feColorMatrix type="matrix" values="0 0 0 0 0 0 0 0 0 0 0 0 0 0 0 0 0 0 0.2 0"/>
<feBlend mode="normal" in2="BackgroundImageFix" result="effect1_dropShadow_4470_2803"/>
<feColorMatrix in="SourceAlpha" type="matrix" values="0 0 0 0 0 0 0 0 0 0 0 0 0 0 0 0 0 0 127 0" result="hardAlpha"/>
<feOffset dy="2.606"/>
<feComposite in2="hardAlpha" operator="out"/>
<feColorMatrix type="matrix" values="0 0 0 0 1 0 0 0 0 1 0 0 0 0 1 0 0 0 0.07 0"/>
<feBlend mode="normal" in2="effect1_dropShadow_4470_2803" result="effect2_dropShadow_4470_2803"/>
<feBlend mode="normal" in="SourceGraphic" in2="effect2_dropShadow_4470_2803" result="shape"/>
<feColorMatrix in="SourceAlpha" type="matrix" values="0 0 0 0 0 0 0 0 0 0 0 0 0 0 0 0 0 0 127 0" result="hardAlpha"/>
<feOffset dy="-2.606"/>
<feGaussianBlur stdDeviation="1.303"/>
<feComposite in2="hardAlpha" operator="arithmetic" k2="-1" k3="1"/>
<feColorMatrix type="matrix" values="0 0 0 0 0 0 0 0 0 0 0 0 0 0 0 0 0 0 0.13 0"/>
<feBlend mode="normal" in2="shape" result="effect3_innerShadow_4470_2803"/>
</filter>
<filter id="filter2_dddi_4470_2803" x="29.5804" y="31.2704" width="45.0813" height="52.1204" filterUnits="userSpaceOnUse" color-interpolation-filters="sRGB">
<feFlood flood-opacity="0" result="BackgroundImageFix"/>
<feColorMatrix in="SourceAlpha" type="matrix" values="0 0 0 0 0 0 0 0 0 0 0 0 0 0 0 0 0 0 127 0" result="hardAlpha"/>
<feOffset dy="2.606"/>
<feGaussianBlur stdDeviation="3.909"/>
<feComposite in2="hardAlpha" operator="out"/>
<feColorMatrix type="matrix" values="0 0 0 0 0 0 0 0 0 0 0 0 0 0 0 0 0 0 0.2 0"/>
<feBlend mode="normal" in2="BackgroundImageFix" result="effect1_dropShadow_4470_2803"/>
<feColorMatrix in="SourceAlpha" type="matrix" values="0 0 0 0 0 0 0 0 0 0 0 0 0 0 0 0 0 0 127 0" result="hardAlpha"/>
<feOffset dy="2.606"/>
<feComposite in2="hardAlpha" operator="out"/>
<feColorMatrix type="matrix" values="0 0 0 0 1 0 0 0 0 1 0 0 0 0 1 0 0 0 0.12 0"/>
<feBlend mode="normal" in2="effect1_dropShadow_4470_2803" result="effect2_dropShadow_4470_2803"/>
<feColorMatrix in="SourceAlpha" type="matrix" values="0 0 0 0 0 0 0 0 0 0 0 0 0 0 0 0 0 0 127 0" result="hardAlpha"/>
<feOffset dy="2.606"/>
<feComposite in2="hardAlpha" operator="out"/>
<feColorMatrix type="matrix" values="0 0 0 0 1 0 0 0 0 1 0 0 0 0 1 0 0 0 0.07 0"/>
<feBlend mode="normal" in2="effect2_dropShadow_4470_2803" result="effect3_dropShadow_4470_2803"/>
<feBlend mode="normal" in="SourceGraphic" in2="effect3_dropShadow_4470_2803" result="shape"/>
<feColorMatrix in="SourceAlpha" type="matrix" values="0 0 0 0 0 0 0 0 0 0 0 0 0 0 0 0 0 0 127 0" result="hardAlpha"/>
<feOffset dy="-2.606"/>
<feGaussianBlur stdDeviation="1.303"/>
<feComposite in2="hardAlpha" operator="arithmetic" k2="-1" k3="1"/>
<feColorMatrix type="matrix" values="0 0 0 0 0 0 0 0 0 0 0 0 0 0 0 0 0 0 0.13 0"/>
<feBlend mode="normal" in2="shape" result="effect4_innerShadow_4470_2803"/>
</filter>
<linearGradient id="paint0_linear_4470_2803" x1="52.12" y1="0" x2="52.12" y2="104.24" gradientUnits="userSpaceOnUse">
<stop stop-color="white" stop-opacity="0.04"/>
<stop offset="1" stop-color="white" stop-opacity="0"/>
</linearGradient>
<linearGradient id="paint1_linear_4470_2803" x1="52.1192" y1="21.1755" x2="52.1192" y2="83.498" gradientUnits="userSpaceOnUse">
<stop stop-color="white"/>
<stop offset="1" stop-color="white" stop-opacity="0"/>
</linearGradient>
<clipPath id="clip0_4470_2803">
<rect width="104.24" height="104.24" rx="10.424" fill="white"/>
</clipPath>
</defs>
</svg>
